<svg id="Layer_1" enable-background="new 0 0 512 512" height="512" viewBox="0 0 512 512" width="512" xmlns="http://www.w3.org/2000/svg"><g><path d="m245.002 10.998c-68.872 0-131.086 28.436-175.597 74.186l-52.534 260.329c35.749 91.037 124.411 155.49 228.131 155.49 135.311 0 245.002-109.691 245.002-245.002s-109.691-245.003-245.002-245.003z" fill="#2a428c"/><path d="m206.26 450.03c-5.706-10.178-6.427-20.682-4.357-30.31l-21.722-3.006-20.439 3.006c5.083 10.53 8.91 21.599 12.563 30.31 8.918 21.264 46.644 22.636 33.955 0z" fill="#e80054"/><path d="m403.278 326.165-194.435-6.013-198.94 4.967c2.203 7.504 4.751 14.86 7.634 22.047 25.447 4.813 38.997-2.275 56.335 15.063 4.57 4.57 8.327 8.036 11.58 10.714l98.84 5.011 111.095-5.011c1.704-12.808 21.975-11.228 54.92-11.228 17.104 0 22.149 4.909 24.614 11.228l23.374 4.009 18.205-4.009c-2.868-3.917-6.085-7.712-9.602-11.228-10.423-10.423-8.592-23.409-3.62-35.55z" fill="#ff4155"/><path d="m161.041 341c-9.688-5.819-16.438-12.438-21.114-19.127l-130.024 3.246c2.203 7.504 4.751 14.86 7.634 22.047 25.447 4.813 38.997-2.275 56.335 15.063 4.57 4.57 8.327 8.036 11.58 10.714l98.84 5.011 3.399-.153c-4.636-12.189-9.413-26.448-26.65-36.801z" fill="#e80054"/><path d="m452.17 257.28c-10.822-10.822-8.507-15.328-5.44-24.669l-150.779-4.008-133.935 4.008v45.748h-8.016v3.86l103.997 1.178 185.964-4.009c10.452-5.984 17.858-12.459 8.209-22.108z" fill="#ff4155"/><path d="m488.182 145.471c-2.005-2.005-3.273-4.162-3.949-6.413l-50.865-3.006-44.525 3.006c-3.541 2.541-5.416 6.376-4.067 14.301 3.033 17.819-20.473 29.489-39.091 32.475l65.135 3.006 39.337-3.006c6.879-27.781 51.848-26.54 38.025-40.363z" fill="#ff4155"/><path d="m322.184 147.872c5.733-1.818 9.697-5.004 11.71-8.814l-93.433-3.006-78.444 3.006v46.777l77.944 6.013 89.911-6.013c-.284-.074-.561-.151-.827-.236-15.092-4.802-20.923-33.269-6.861-37.727z" fill="#ff4155"/><path d="m492.298 67.959c-8.231-16.463-28.81-41.5-28.81 1.029 0 6.959-.904 12.146-2.461 16.09l20.777 2.004 25.143-2.004c-4.384-4.042-10.635-9.091-14.649-17.119z" fill="#ff4155"/><path d="m295.775 379.206c-.505-2.4-.626-4.471-.387-6.264h-209.936c15.297 12.593 19.177 7.355 41.238 13.295 15.793 4.252 25.727 18.307 33.052 33.482h42.16c2.533-11.786 9.253-22.258 16.19-29.195 12.604-12.604 81.799 8.232 77.683-11.318z" fill="#e9efff"/><path d="m126.69 386.237c15.793 4.252 25.727 18.307 33.052 33.482h42.16c1.426-6.636 4.18-12.856 7.553-18.263-15.315-3.556-18.513-15.328-23.611-28.514h-100.392c15.297 12.593 19.177 7.355 41.238 13.295z" fill="#bec8f7"/><path d="m443.962 279.389h-280.917-161.928c1.525 16.098 4.609 31.739 9.097 46.777h393.063c4.476-10.931 11.499-21.175 14.424-28.244 3.045-7.357 16.094-12.712 26.261-18.533z" fill="#e9efff"/><path d="m1.117 279.389c1.525 16.098 4.609 31.739 9.097 46.777h133.019c-18.73-22.124-12.233-46.777-12.233-46.777z" fill="#bec8f7"/><path d="m388.892 395.669c21.607 10.289 27.781 34.983 38.07 24.694 8.462-8.462 2.824-29.276-10.462-47.42h-41.579c2.947 7.554 2.205 17.123 13.971 22.726z" fill="#e9efff"/><path d="m161.041 139.058h172.853c2.924-5.536 1.727-12.389-4.164-18.281-9.946-9.946-31.553 9.946-45.958-8.574-14.405-18.521-37.898-10.118-44.586-16.806s-27.438-8.574-27.438-8.574h-48.702z" fill="#e9efff"/><path d="m345.685 185.835c-6.202.995-11.859 1.026-15.814 0h-168.83v46.777h285.689c2.328-7.088 5.087-16.959 2.868-34.494-.588-4.642-.327-8.701.56-12.283z" fill="#e9efff"/><path d="m418.216 115.633c-7.839 18.445-22.11 18.213-29.372 23.425h95.39c-4.584-15.27 18.233-34.966 25.556-42.289 4.305-4.305 1.763-7.443-2.843-11.691h-45.919c-7.956 20.157-33.059 7.606-42.812 30.555z" fill="#e9efff"/><path d="m132.864 86.823c-21.827 0-42.75-1.143-62.194-2.95-4.015 4.066-7.886 8.274-11.611 12.612l-14.208 18.212c-5.478 7.744-10.512 15.822-15.078 24.193l-9.799 20.118c-4.057 9.397-7.546 19.095-10.416 29.057l-5.587 23.83c-2.601 14.309-3.971 29.046-3.971 44.105 0 7.89.388 15.689 1.117 23.389h161.928v-192.566z" fill="#4383e8"/><path d="m128.114 257.698c2.614-9.635-1.631-25.862-1.631-25.862-13.516-3.497-8.722-18.266-8.722-18.266-2.738-7.929 2.032-20.621 2.032-20.621-7.54-11.55.324-24.69.324-24.69 1.867-7.366-2.831-20.879-2.831-20.879-10.667-10.667-3.24-24.269-3.24-24.269-2.079-8.514 3.513-21.3 3.513-21.3-3.94-9.023 4.843-14.987 4.843-14.987l-.14-.1c-18.005-.301-35.321-1.338-51.592-2.85-4.015 4.066-7.886 8.274-11.611 12.612l-14.208 18.212c-5.478 7.744-10.512 15.822-15.078 24.193l-9.799 20.118c-4.057 9.397-7.546 19.095-10.416 29.057l-5.587 23.83c-2.601 14.308-3.971 29.045-3.971 44.104 0 7.89.388 15.689 1.117 23.389h129.883c-10.667-8.612-2.886-21.691-2.886-21.691z" fill="#3067d0"/><g fill="#e9efff"><path d="m42.858 238.519-4.389-.638c-1.231-.179-2.295-.952-2.846-2.067l-1.963-3.978c-1.386-2.809-5.392-2.809-6.778 0l-1.963 3.978c-.55 1.115-1.615 1.888-2.846 2.067l-4.389.638c-3.1.45-4.337 4.26-2.094 6.446l3.176 3.096c.891.868 1.297 2.119 1.087 3.345l-.75 4.371c-.53 3.087 2.711 5.442 5.484 3.984l3.926-2.064c1.101-.579 2.417-.579 3.517 0l3.926 2.064c2.773 1.457 6.014-.897 5.484-3.984l-.75-4.371c-.21-1.226.196-2.477 1.087-3.345l3.176-3.096c2.243-2.186 1.005-5.996-2.095-6.446z"/><path d="m92.659 238.519-4.389-.638c-1.231-.179-2.295-.952-2.846-2.067l-1.963-3.978c-1.386-2.809-5.392-2.809-6.778 0l-1.963 3.978c-.55 1.115-1.615 1.888-2.846 2.067l-4.389.638c-3.1.45-4.338 4.26-2.094 6.446l3.176 3.096c.891.868 1.297 2.119 1.087 3.345l-.75 4.371c-.53 3.087 2.711 5.442 5.484 3.984l3.926-2.064c1.101-.579 2.416-.579 3.518 0l3.926 2.064c2.773 1.457 6.013-.897 5.484-3.984l-.75-4.371c-.21-1.226.196-2.477 1.087-3.345l3.176-3.096c2.242-2.186 1.004-5.996-2.096-6.446z"/><path d="m142.46 238.519-4.389-.638c-1.231-.179-2.295-.952-2.846-2.067l-1.963-3.978c-1.387-2.809-5.392-2.809-6.779 0l-1.963 3.978c-.55 1.115-1.615 1.888-2.846 2.067l-4.389.638c-3.1.45-4.337 4.26-2.094 6.446l3.176 3.096c.891.868 1.297 2.119 1.087 3.345l-.75 4.371c-.529 3.087 2.711 5.442 5.484 3.984l3.926-2.064c1.101-.579 2.416-.579 3.517 0l3.926 2.064c2.773 1.457 6.013-.897 5.484-3.984l-.75-4.371c-.21-1.226.196-2.477 1.087-3.345l3.176-3.096c2.244-2.186 1.006-5.996-2.094-6.446z"/><path d="m142.46 147.38-4.389-.638c-1.231-.179-2.295-.952-2.846-2.067l-1.963-3.978c-1.387-2.809-5.392-2.809-6.779 0l-1.963 3.978c-.55 1.115-1.615 1.888-2.846 2.067l-4.389.638c-3.1.45-4.337 4.26-2.094 6.446l3.176 3.096c.891.868 1.297 2.119 1.087 3.345l-.75 4.371c-.529 3.087 2.711 5.442 5.484 3.984l3.926-2.064c1.101-.579 2.416-.579 3.517 0l3.926 2.064c2.773 1.457 6.013-.897 5.484-3.984l-.75-4.371c-.21-1.226.196-2.477 1.087-3.345l3.176-3.096c2.244-2.186 1.006-5.996-2.094-6.446z"/><path d="m67.759 192.95-4.389-.638c-1.231-.179-2.295-.952-2.846-2.067l-1.963-3.978c-1.387-2.809-5.392-2.809-6.778 0l-1.963 3.978c-.551 1.115-1.615 1.888-2.846 2.067l-4.389.638c-3.1.45-4.338 4.26-2.095 6.446l3.176 3.096c.891.868 1.297 2.119 1.087 3.345l-.75 4.371c-.53 3.087 2.711 5.442 5.484 3.984l3.926-2.064c1.101-.579 2.416-.579 3.517 0l3.926 2.064c2.773 1.457 6.013-.897 5.484-3.984l-.75-4.371c-.21-1.226.196-2.477 1.087-3.345l3.176-3.096c2.243-2.186 1.005-5.996-2.094-6.446z"/><path d="m119.793 192.95-3.534-.638c-.991-.179-1.848-.952-2.291-2.067l-1.58-3.978c-1.116-2.809-4.341-2.809-5.458 0l-1.58 3.978c-.443 1.115-1.3 1.888-2.291 2.067l-3.534.638c-2.496.45-3.493 4.26-1.686 6.446l2.557 3.096c.717.868 1.044 2.119.875 3.345l-.604 4.371c-.426 3.087 2.183 5.442 4.416 3.984l3.161-2.064c.886-.579 1.946-.579 2.832 0l3.161 2.064c2.232 1.457 4.842-.897 4.416-3.984l-.604-4.371c-.169-1.226.158-2.477.875-3.345l2.557-3.096c1.805-2.186.808-5.996-1.688-6.446z"/><path d="m7.13 212.129 3.926 2.064c2.773 1.457 6.013-.897 5.484-3.984l-.75-4.371c-.21-1.226.196-2.477 1.087-3.345l3.176-3.096c2.243-2.186 1.005-5.996-2.094-6.446l-4.389-.638c-1.231-.179-2.295-.952-2.846-2.067l-1.136-2.301c-2.27 7.865-4.159 15.891-5.64 24.059 1.027-.423 2.188-.398 3.182.125z"/><path d="m142.46 147.38-4.389-.638c-1.231-.179-2.295-.952-2.846-2.067l-1.963-3.978c-1.387-2.809-5.392-2.809-6.779 0l-1.963 3.978c-.55 1.115-1.615 1.888-2.846 2.067l-4.389.638c-3.1.45-4.337 4.26-2.094 6.446l3.176 3.096c.891.868 1.297 2.119 1.087 3.345l-.75 4.371c-.529 3.087 2.711 5.442 5.484 3.984l3.926-2.064c1.101-.579 2.416-.579 3.517 0l3.926 2.064c2.773 1.457 6.013-.897 5.484-3.984l-.75-4.371c-.21-1.226.196-2.477 1.087-3.345l3.176-3.096c2.244-2.186 1.006-5.996-2.094-6.446z"/><path d="m19.853 160.267-.75 4.371c-.529 3.087 2.711 5.442 5.484 3.984l3.926-2.064c1.101-.579 2.417-.579 3.518 0l3.925 2.064c2.773 1.457 6.014-.897 5.484-3.984l-.75-4.371c-.21-1.226.196-2.477 1.087-3.345l3.176-3.096c2.243-2.186 1.005-5.996-2.095-6.446l-4.389-.638c-1.231-.179-2.295-.952-2.846-2.067l-1.963-3.978c-.756-1.531-2.289-2.221-3.753-2.083-3.654 6.681-6.999 13.553-10.03 20.593.04.349.037.705-.024 1.06z"/><path d="m92.659 147.38-4.389-.638c-1.231-.179-2.295-.952-2.846-2.067l-1.963-3.978c-1.386-2.809-5.392-2.809-6.778 0l-1.963 3.978c-.55 1.115-1.615 1.888-2.846 2.067l-4.389.638c-3.1.45-4.338 4.26-2.094 6.446l3.176 3.096c.891.868 1.297 2.119 1.087 3.345l-.75 4.371c-.53 3.087 2.711 5.442 5.484 3.984l3.926-2.064c1.101-.579 2.416-.579 3.518 0l3.926 2.064c2.773 1.457 6.013-.897 5.484-3.984l-.75-4.371c-.21-1.226.196-2.477 1.087-3.345l3.176-3.096c2.242-2.186 1.004-5.996-2.096-6.446z"/><path d="m44.004 119.069c-.53 3.088 2.711 5.442 5.484 3.984l3.926-2.064c1.101-.579 2.416-.579 3.517 0l3.926 2.064c2.773 1.457 6.014-.897 5.484-3.984l-.75-4.371c-.21-1.226.196-2.477 1.087-3.345l3.176-3.096c2.243-2.186 1.005-5.996-2.094-6.446l-4.389-.638c-1.231-.179-2.295-.952-2.846-2.067l-1.359-2.755c-5.098 5.929-9.918 12.104-14.438 18.507z"/><path d="m117.559 101.81-4.389-.638c-1.231-.179-2.295-.952-2.846-2.067l-1.963-3.978c-1.386-2.809-5.392-2.809-6.778 0l-1.963 3.978c-.55 1.115-1.615 1.888-2.846 2.067l-4.389.638c-3.1.45-4.338 4.26-2.094 6.446l3.176 3.096c.891.868 1.297 2.119 1.087 3.345l-.75 4.371c-.529 3.088 2.711 5.442 5.484 3.984l3.926-2.064c1.101-.578 2.416-.578 3.517 0l3.926 2.064c2.773 1.457 6.013-.897 5.484-3.984l-.75-4.371c-.21-1.226.196-2.477 1.087-3.345l3.176-3.096c2.243-2.186 1.005-5.996-2.095-6.446z"/></g></g></svg>